<svg xmlns="http://www.w3.org/2000/svg" width="256" height="256" viewBox="0 0 100 100"><rect width="100" height="100" rx="20" fill="var(--accent-color)"></rect><path fill="#fff" d="M15.48 74.32L15.48 74.32Q13.88 74.32 12.92 73.36Q11.96 72.40 11.96 70.80L11.96 70.80L11.96 29.20Q11.96 27.60 12.92 26.64Q13.88 25.68 15.48 25.68L15.48 25.68L42.04 25.68Q42.28 26.08 42.52 26.76Q42.76 27.44 42.76 28.24L42.76 28.24Q42.76 29.60 42.12 30.40Q41.48 31.20 40.28 31.20L40.28 31.20L18.44 31.20L18.44 46.64L39.56 46.64Q39.80 47.04 40.04 47.72Q40.28 48.40 40.28 49.20L40.28 49.20Q40.28 50.56 39.64 51.32Q39.00 52.08 37.80 52.08L37.80 52.08L18.44 52.08L18.44 68.88L42.44 68.88Q42.68 69.28 42.92 69.92Q43.16 70.56 43.16 71.44L43.16 71.44Q43.16 72.80 42.52 73.56Q41.88 74.32 40.68 74.32L40.68 74.32L15.48 74.32ZM85.96 25.68L85.96 25.68Q86.60 26.24 87.04 27.04Q87.48 27.84 87.48 28.72L87.48 28.72Q87.48 29.84 87.04 30.72Q86.60 31.60 85.80 32.72L85.80 32.72L59.48 68.80L87.24 68.80Q87.56 69.20 87.80 69.88Q88.04 70.56 88.04 71.44L88.04 71.44Q88.04 72.80 87.36 73.56Q86.68 74.32 85.56 74.32L85.56 74.32L52.84 74.32Q52.20 73.76 51.76 72.96Q51.32 72.16 51.32 71.28L51.32 71.28Q51.32 70.16 51.76 69.28Q52.20 68.40 53.00 67.28L53.00 67.28L79.32 31.20L52.68 31.20Q52.44 30.80 52.16 30.12Q51.88 29.44 51.88 28.56L51.88 28.56Q51.88 27.20 52.56 26.44Q53.24 25.68 54.44 25.68L54.44 25.68L85.96 25.68Z"></path></svg>