<svg width="510px" height="262px" xmlns="http://www.w3.org/2000/svg" transform="rotate(0) scale(1, 1)">
 <path d="m510 262h-510v-262h510zm-505-257v252h500v-252z" fill="#00000000"/>
 <path d="m5 5h500v252h-500zm210 189.22c0 1.28 6.55 5.45 10.5 6.68 1.92 0.61 5.81 0.88 8.63 0.61 2.83-0.27 7.12-1.59 9.54-2.95 14.21-7.94 10.23-23.85-7.45-29.81-10.36-3.49-13.35-6.75-11.32-12.35 2.27-6.29 10.07-8.14 17.03-4.05 3.99 2.34 3.99 2.34 6.66-0.45 2.67-2.78 2.67-2.78-1.11-5.35-12.62-8.56-31.06-0.83-30.93 12.96 0.08 8.38 2.85 11.31 15.34 16.3 10.73 4.29 12.7 6.21 11.59 11.28-1.56 7.09-12.39 9.64-19.26 4.54-3.36-2.5-9.22-0.86-9.22 2.59m-85-49.22v55h8v-55zm34 7v24c0 24 0 24 3.5 24s3.5 0 3.5-48h9c9 0 9 0 9-3.5s0-3.5-21.5-3.5-21.5 0-21.5 3.5 0 3.5 18 3.5zm121-7v55h18.5c18.5 0 18.5 0 18.5-3.5s0-3.5-29-3.5v-18h13c13 0 13 0 13-3.5s0-3.5-13-3.5-13 0-13-16h14c14 0 14 0 14-3.5s0-3.5-36-3.5zm59.39 27.5c-13.4 17.49-15.33 20.47-15.36 23.75-0.03 3.75-0.03 3.75 20.47 3.75s20.5 0 20.5-3.5 0-3.5-15.5-3.5c-8.52 0-15.5-0.2-15.5-0.44 0-0.25 6.98-9.62 15.5-20.82 21.33-28.04 21.57-26.74-5.06-26.74-20.57 0-20.57 0-20.25 3.25 0.31 3.25 0.31 3.25 30.53 4.25zm-146.39-27.5v19h6v-19zm-168.81-55c-0.38 35.64-0.29 36.52 4.3 39.06 3.02 1.67 5.51 1.94 17.76 1.93 7.84 0 15.92-0.47 17.97-1.03 4.59-1.28 6.78-4.24 6.78-9.18 0-3.78 0-3.78-31-3.78v-7.5c0-7.5 0-7.5 11.39-7.5 11.38 0 11.38 0 11.88-3.25 1.38-9.13 0.63-9.75-11.9-9.75-11.37 0-11.37 0-11.37-7s0-7 13.88-7c15.78 0 15.08 0.43 15.11-9.27 0.01-4.77 0.01-4.77-44.49-4.23zm136.81 34.28c0 2.9 0.45 5.6 1 6s3.44 0.72 6.42 0.72 6.13-0.27 7-0.61c1.17-0.45 1.58-2 1.58-5.94 0-5.33 0-5.33 3.75-5.64 6.17-0.51 6.45-12.81 0.3-12.81-4.05 0-4.05 0-4.05-9s0-9-4.28-9c-7.35 0-11.72 5.2-11.72 13.97 0 4.03 0 4.03-5 4.03-2.75 0-4.98-0.11-4.96-0.25s1.37-2.73 3-5.75 5.55-11.72 8.71-19.32c6.53-15.69 6.32-16.57-4.01-16.64-4.75-0.04-4.75-0.04-13.75 21.26-9.36 22.16-9.94 24.5-7.54 30.23 1.45 3.47 1.45 3.47 12.5 3.47s11.05 0 11.05 5.28m110.5-31.63c0 35.24-0.06 34.89 6.23 37.43 1.25 0.51 8.79 0.81 16.75 0.67 14.1-0.24 14.55-0.32 17.07-2.85 1.63-1.62 2.81-4.15 3.16-6.75 0.55-4.15 0.55-4.15-26.71-4.15v-24.03c0-27.94-0.46-30.13-6.69-32-10.18-3.05-9.81-4.26-9.81 31.68m53.52 2.73c0 18.77 0.23 34.46 0.5 34.87 0.26 0.41 3.74 0.64 14.98 0.25l0.26-34.62c0.27-34.62 0.27-34.62-3.75-35.26-12.37-1.98-12.01-3.01-11.99 34.76m42.91 30.35c0.56 1.23 2.15 2.91 3.54 3.75 1.64 0.99 4.91 1.5 9.28 1.45 3.71-0.04 7.57-0.39 8.58-0.79 1.8-0.71 21.23-66.42 20.15-68.17-0.74-1.19-9.11-1.94-12.12-1.07-2.86 0.82-2.93 1.04-9.25 27.71-3.5 14.79-6.46 27-6.57 27.14-0.8 0.98-1.41-0.39-2.01-4.5-1.08-7.44-11.42-45.44-13.02-47.88-1.92-2.92-6.72-3.85-12.11-2.34-2.42 0.68-4.39 1.28-4.38 1.35 0.47 2.57 17.22 61.82 17.91 63.35m50.27-34.73c-0.33 32.74 0.09 36.06 4.84 38.48 2.26 1.16 6.53 1.52 17.99 1.52 10.7 0 16.01-0.41 18.42-1.42 4.02-1.67 5.55-4.16 5.55-9.01 0-3.57 0-3.57-31.09-3.57l0.3-7.25c0.29-7.25 0.29-7.25 11.53-7.53 12.72-0.32 13.23-0.73 11.87-9.27-0.63-3.95-0.63-3.95-12.12-3.95s-11.49 0-11.49-7 0-7 14.06-7c14.07 0 14.07 0 14.69-3.75 1.78-10.69 2.59-10.32-44.25-9.75zm-323.22 4c-16.92 22.77-16.82 22.55-15.46 31.75 0.48 3.25 0.48 3.25 22.23 3.21 15.18-0.02 22.39-0.4 23.85-1.25 3.83-2.2 5.36-7.41 3.54-12.03-0.64-1.62-1.19-1.7-5.18-0.7-2.45 0.61-9.42 0.98-26.5 0.52l13.36-18c17.78-23.96 18.31-24.96 16.81-31.71-1.18-5.29-1.18-5.29-23.87-5.56s-22.69-0.27-23.35 4.71c-1.12 8.45-1.51 8.25 15.59 7.88 8.25-0.18 14.99-0.32 14.98-0.32s-7.21 9.68-16 21.5m112.01 4.13c-16.04 15.57-18.18 20.24-12.85 28.12 1.86 2.75 1.86 2.75 19.28 2.75 9.58 0 18.14-0.28 19.04-0.62 2.24-0.86 4.54-5.65 4.54-9.44 0-3.17 0-3.17-14-2.78-7.7 0.21-14 0.22-14 0.02 0-1.03 1.93-2.89 10.68-10.33 12.29-10.46 15.32-15.1 15.32-23.48 0-20.51-27.5-28.01-39.22-10.68-4.58 6.77-4.53 8.07 0.4 10.3 5.83 2.65 6.08 2.6 9.09-2.01 4.97-7.58 13.73-6.13 13.73 2.28 0 4.07-0.41 4.61-12.01 15.87" fill="#00acc1"/>
 <path d="m423.2 91 0.3-29.5c46.84-0.57 46.03-0.94 44.25 9.75-0.62 3.75-0.62 3.75-14.69 3.75-14.06 0-14.06 0-14.06 7s0 7 11.49 7 11.49 0 12.12 3.95c1.36 8.54 0.85 8.95-11.87 9.27-11.24 0.28-11.24 0.28-11.53 7.53l-0.3 7.25c31.09 0 31.09 0 31.09 3.57 0 4.85-1.53 7.34-5.55 9.01-2.41 1.01-7.72 1.42-18.42 1.42-11.46 0-15.73-0.36-17.99-1.52-4.75-2.42-5.17-5.74-4.84-38.48" fill="#ff7f50"/>
 <path d="m29.19 90 0.31-28.5c44.5-0.54 44.5-0.54 44.49 4.23-0.03 9.7 0.67 9.27-15.11 9.27-13.88 0-13.88 0-13.88 7s0 7 11.37 7c12.53 0 13.28 0.62 11.9 9.75-0.5 3.25-0.5 3.25-11.88 3.25-11.39 0-11.39 0-11.39 7.5v7.5c31 0 31 0 31 3.78 0 4.94-2.19 7.9-6.78 9.18-2.05 0.56-10.13 1.03-17.97 1.03-12.25 0.01-14.74-0.26-17.76-1.93-4.59-2.54-4.68-3.42-4.3-39.06" fill="#ff7f50"/>
 <path d="m372.93 125.73c-0.69-1.53-17.44-60.78-17.91-63.35-0.01-0.07 1.96-0.67 4.38-1.35 5.39-1.51 10.19-0.58 12.11 2.34 1.6 2.44 11.94 40.44 13.02 47.88 0.6 4.11 1.21 5.48 2.01 4.5 0.11-0.14 3.07-12.35 6.57-27.14 6.32-26.67 6.39-26.89 9.25-27.71 3.01-0.87 11.38-0.12 12.12 1.07 1.08 1.75-18.35 67.46-20.15 68.17-1.01 0.4-4.87 0.75-8.58 0.79-4.37 0.05-7.64-0.46-9.28-1.45-1.39-0.84-2.98-2.52-3.54-3.75" fill="#ff7f50"/>
 <path d="m99.98 95c8.79-11.82 15.99-21.5 16-21.5s-6.73 0.14-14.98 0.32c-17.1 0.37-16.71 0.57-15.59-7.88 0.66-4.98 0.66-4.98 23.35-4.71s22.69 0.27 23.87 5.56c1.5 6.75 0.97 7.75-16.81 31.71l-13.36 18c17.08 0.46 24.05 0.09 26.5-0.52 3.99-1 4.54-0.92 5.18 0.7 1.82 4.62 0.29 9.83-3.54 12.03-1.46 0.85-8.67 1.23-23.85 1.25-21.75 0.04-21.75 0.04-22.23-3.21-1.36-9.2-1.46-8.98 15.46-31.75" fill="#ff7f50"/>
 <path d="m211.99 99.13c11.6-11.26 12.01-11.8 12.01-15.87 0-8.41-8.76-9.86-13.73-2.28-3.01 4.61-3.26 4.66-9.09 2.01-4.93-2.23-4.98-3.53-0.4-10.3 11.72-17.33 39.22-9.83 39.22 10.68 0 8.38-3.03 13.02-15.32 23.48-8.75 7.44-10.68 9.3-10.68 10.33 0 0.2 6.3 0.19 14-0.02 14-0.39 14-0.39 14 2.78 0 3.79-2.3 8.58-4.54 9.44-0.9 0.34-9.46 0.62-19.04 0.62-17.42 0-17.42 0-19.28-2.75-5.33-7.88-3.19-12.55 12.85-28.12" fill="#ff7f50"/>
 <path d="m166 124.28c0-5.28 0-5.28-11.05-5.28s-11.05 0-12.5-3.47c-2.4-5.73-1.82-8.07 7.54-30.23 9-21.3 9-21.3 13.75-21.26 10.33 0.07 10.54 0.95 4.01 16.64-3.16 7.6-7.08 16.3-8.71 19.32s-2.98 5.61-3 5.75 2.21 0.25 4.96 0.25c5 0 5 0 5-4.03 0-8.77 4.37-13.97 11.72-13.97 4.28 0 4.28 0 4.28 9s0 9 4.05 9c6.15 0 5.87 12.3-0.3 12.81-3.75 0.31-3.75 0.31-3.75 5.64 0 3.94-0.41 5.49-1.58 5.94-0.87 0.34-4.02 0.61-7 0.61s-5.87-0.32-6.42-0.72-1-3.1-1-6" fill="#ff7f50"/>
 <path d="m276.5 92.65c0-35.94-0.37-34.73 9.81-31.68 6.23 1.87 6.69 4.06 6.69 32v24.03c27.26 0 27.26 0 26.71 4.15-0.35 2.6-1.53 5.13-3.16 6.75-2.52 2.53-2.97 2.61-17.07 2.85-7.96 0.14-15.5-0.16-16.75-0.67-6.29-2.54-6.23-2.19-6.23-37.43" fill="#ff7f50"/>
 <path d="m330.02 95.38c-0.02-37.77-0.38-36.74 11.99-34.76 4.02 0.64 4.02 0.64 3.75 35.26l-0.26 34.62c-11.24 0.39-14.72 0.16-14.98-0.25-0.27-0.41-0.5-16.1-0.5-34.87" fill="#ff7f50"/>
 <path d="m285 145c36 0 36 0 36 3.5s0 3.5-14 3.5h-14c0 16 0 16 13 16s13 0 13 3.5 0 3.5-13 3.5h-13v18c29 0 29 0 29 3.5s0 3.5-18.5 3.5h-18.5z" fill="#ff7f50"/>
 <path d="m344.39 172.5 15.33-20c-30.22-1-30.22-1-30.53-4.25-0.32-3.25-0.32-3.25 20.25-3.25 26.63 0 26.39-1.3 5.06 26.74-8.52 11.2-15.5 20.57-15.5 20.82 0 0.24 6.98 0.44 15.5 0.44 15.5 0 15.5 0 15.5 3.5s0 3.5-20.5 3.5-20.5 0-20.47-3.75c0.03-3.28 1.96-6.26 15.36-23.75" fill="#ff7f50"/>
 <path d="m215 194.22c0-3.45 5.86-5.09 9.22-2.59 6.87 5.1 17.7 2.55 19.26-4.54 1.11-5.07-0.86-6.99-11.59-11.28-12.49-4.99-15.26-7.92-15.34-16.3-0.13-13.79 18.31-21.52 30.93-12.96 3.78 2.57 3.78 2.57 1.11 5.35-2.67 2.79-2.67 2.79-6.66 0.45-6.96-4.09-14.76-2.24-17.03 4.05-2.03 5.6 0.96 8.86 11.32 12.35 17.68 5.96 21.66 21.87 7.45 29.81-2.42 1.36-6.71 2.68-9.54 2.95-2.82 0.27-6.71 0-8.63-0.61-3.95-1.23-10.5-5.4-10.5-6.68" fill="#ff7f50"/>
 <path d="m164 152c-18 0-18 0-18-3.5s0-3.5 21.5-3.5 21.5 0 21.5 3.5 0 3.5-9 3.5h-9c0 48 0 48-3.5 48s-3.5 0-3.5-24z" fill="#ff7f50"/>
 <path d="m130 145h8v55h-8z" fill="#ff7f50"/>
 <path d="m198 145h6v19h-6z" fill="#ff7f50"/>
</svg>
